<svg version="1.2" xmlns="http://www.w3.org/2000/svg" viewBox="7.0000000000000036 31 232 65" width="232" height="65"><style>.a{display:none;stroke:#000;stroke-miterlimit:10}.b{fill:#1a4578}.c{fill:#476e4e}</style><path fill-rule="evenodd" class="a" d="m252 0v144h-252v-144z"/><path fill-rule="evenodd" class="b" d="m155.8 93c-5.6 0-10.7-1.9-14.7-5.1l5.2-2.8c2.8 1.8 6.1 2.9 9.7 2.9 3 0 5.9-0.7 8.3-2.1l4.5 3.2c-3.7 2.5-8.2 3.9-13 3.9z"/><path class="b" d="m18.6 83h-6.6v-32.7h10.3l5.3 15q0.3 1 0.7 2.7 0.4 1.7 0.9 3.6 0.4 2 0.8 3.8 0.4 1.8 0.7 3.1h-1.4q0.3-1.3 0.7-3.1 0.4-1.8 0.8-3.7 0.4-2 0.9-3.7 0.4-1.7 0.7-2.7l5.3-15h10.3v32.7h-6.8v-15.4q0-1.1 0.1-2.7 0-1.6 0-3.5 0.1-1.8 0.2-3.7 0-1.9 0-3.5h0.4q-0.4 1.8-0.9 3.7-0.5 2-1 3.8-0.5 1.8-1 3.3-0.5 1.6-0.8 2.6l-5.4 15.4h-5.7l-5.5-15.4q-0.3-1-0.8-2.5-0.4-1.5-0.9-3.3-0.6-1.9-1.1-3.8-0.5-2-1-3.8h0.5q0.1 1.5 0.1 3.4 0.1 1.9 0.1 3.8 0 1.8 0.1 3.5 0 1.6 0 2.7zm46.3 0.4q-3.7 0-6.5-1.5-2.7-1.5-4.2-4.4-1.4-2.8-1.4-6.7 0-3.8 1.4-6.6 1.5-2.9 4.1-4.5 2.7-1.6 6.3-1.6 2.4 0 4.5 0.8 2.1 0.7 3.6 2.3 1.6 1.5 2.5 3.9 0.9 2.3 0.9 5.5v1.8h-20.6v-4.1h17.4l-3.1 1.1q0-2-0.6-3.4-0.6-1.4-1.7-2.2-1.2-0.7-2.9-0.7-1.7 0-2.9 0.7-1.2 0.8-1.8 2.2-0.6 1.3-0.6 3.1v2.9q0 2.1 0.7 3.6 0.7 1.4 2 2.2 1.3 0.7 3 0.7 1.2 0 2.1-0.3 1-0.4 1.6-1 0.7-0.7 1.1-1.6l5.9 1.1q-0.6 2-2 3.6-1.5 1.5-3.7 2.3-2.2 0.8-5.1 0.8zm15.9-33.2h6.6v32.8h-6.6zm18.9 33.2q-2.4 0-4.2-0.8-1.9-0.9-3-2.5-1-1.6-1-4.1 0-2 0.7-3.4 0.8-1.4 2.1-2.2 1.3-0.9 3-1.3 1.6-0.4 3.5-0.6 2.1-0.2 3.4-0.4 1.3-0.2 1.9-0.6 0.6-0.4 0.6-1.2v-0.1q0-1.1-0.4-1.8-0.5-0.7-1.3-1.1-0.9-0.4-2.1-0.4-1.3 0-2.2 0.4-1 0.4-1.6 1-0.6 0.6-0.9 1.4l-6-1q0.6-2.1 2.1-3.6 1.5-1.5 3.7-2.3 2.2-0.8 4.9-0.8 2 0 3.8 0.5 1.9 0.5 3.4 1.5 1.5 1 2.3 2.6 0.9 1.5 0.9 3.8v16.5h-6.2v-3.4h-0.3q-0.5 1.1-1.6 2-0.9 0.9-2.3 1.4-1.4 0.5-3.2 0.5zm1.8-4.6q1.6 0 2.8-0.6 1.1-0.7 1.8-1.7 0.7-1.1 0.7-2.4v-2.6q-0.3 0.2-0.9 0.4-0.6 0.1-1.3 0.3-0.7 0.1-1.5 0.2-0.7 0.1-1.2 0.2-1.2 0.1-2.1 0.5-1 0.4-1.5 1.1-0.5 0.7-0.5 1.6 0 1 0.5 1.7 0.5 0.6 1.3 0.9 0.8 0.4 1.9 0.4zm38.3 4.1h-20.8v-32.7h6.7v27.1h14.1zm42.9 9.7q-3 0-5.3-0.7-2.3-0.8-3.7-2.2-1.5-1.3-2-3.1l5.7-1.5q0.3 0.6 0.9 1.3 0.7 0.6 1.7 1.1 1.1 0.4 2.7 0.4 2.5 0 3.9-1.2 1.5-1.2 1.5-3.6v-4.5h-0.5q-0.5 1-1.3 1.9-0.8 0.9-2.2 1.5-1.3 0.6-3.3 0.6-2.8 0-5.1-1.3-2.2-1.3-3.6-4-1.3-2.6-1.3-6.7 0-4.1 1.3-6.9 1.4-2.8 3.7-4.2 2.3-1.4 5-1.4 2.1 0 3.4 0.7 1.5 0.7 2.3 1.7 0.9 1 1.4 2h0.2v-4.1h6.5v24.3q0 3.4-1.5 5.6-1.5 2.2-4.2 3.3-2.7 1-6.2 1zm0.1-15q1.7 0 2.9-0.8 1.2-0.9 1.8-2.5 0.6-1.5 0.6-3.7 0-2.2-0.6-3.8-0.6-1.7-1.8-2.5-1.2-1-2.9-1-1.7 0-2.9 1-1.1 0.9-1.8 2.6-0.6 1.6-0.6 3.7 0 2.1 0.6 3.7 0.7 1.6 1.8 2.4 1.2 0.9 2.9 0.9zm24.6 5.3h-6.6v-24.5h6.6zm-3.3-27.8q-1.5 0-2.6-1-1-1-1-2.4 0-1.4 1-2.4 1.1-1 2.6-1 1.5 0 2.5 1 1.1 1 1.1 2.4 0 1.4-1.1 2.4-1 1-2.5 1zm19.7 28.3q-3.7 0-6.4-1.6-2.7-1.6-4.2-4.5-1.4-2.8-1.4-6.6 0-3.8 1.4-6.7 1.5-2.8 4.2-4.4 2.7-1.6 6.4-1.6 2.2 0 4 0.6 1.9 0.5 3.3 1.6 1.4 1.1 2.3 2.6 1 1.5 1.3 3.4l-6.1 1.1q-0.2-0.9-0.6-1.7-0.4-0.8-1-1.3-0.6-0.5-1.4-0.8-0.8-0.3-1.7-0.3-1.8 0-3 1-1.2 0.9-1.8 2.6-0.6 1.6-0.6 3.9 0 2.2 0.6 3.9 0.6 1.6 1.8 2.6 1.2 1 3 1 0.9 0 1.7-0.3 0.8-0.3 1.4-0.9 0.6-0.5 1-1.3 0.4-0.8 0.6-1.8l6.2 1.1q-0.4 2-1.3 3.5-0.9 1.5-2.4 2.6-1.4 1.1-3.3 1.7-1.8 0.6-4 0.6z"/><path class="c" d="m154.8 83.5q-3.7 0-6.4-1.6-2.7-1.6-4.2-4.4-1.4-2.9-1.4-6.7 0-3.8 1.4-6.6 1.5-2.9 4.2-4.5 2.7-1.6 6.4-1.6 3.7 0 6.4 1.6 2.7 1.6 4.1 4.5 1.5 2.8 1.5 6.6 0 3.8-1.5 6.7-1.4 2.8-4.1 4.4-2.7 1.6-6.4 1.6zm0-5.2q1.8 0 2.9-1 1.2-1 1.8-2.6 0.6-1.8 0.6-3.9 0-2.2-0.6-3.8-0.6-1.7-1.8-2.7-1.1-1-2.9-1-1.8 0-2.9 1-1.2 1-1.8 2.7-0.6 1.6-0.6 3.8 0 2.1 0.6 3.9 0.6 1.6 1.8 2.6 1.1 1 2.9 1z"/><path fill-rule="evenodd" class="c" d="m166.5 50.1c4.4-7.9 9.4-14 12.6-15.9-3.1 3.7-6.6 10.1-9.2 17.4-2.5 6.7-3.6 12.6-3.4 16.1q0 0.1 0 0.1 0 0.1-0.1 0.1l-6.1-3.7c1-3.8 3.2-8.9 6.2-14.1z"/></svg>