<svg version="1.2" xmlns="http://www.w3.org/2000/svg" viewBox="4.999999999999992 0 242 65" width="243" height="65"><style>.a{display:none;stroke:#000;stroke-miterlimit:10}.b{fill:#1a4578}.c{fill:#5d9d69}.d{opacity:.6;display:none;fill:#ddd}</style><path fill-rule="evenodd" class="a" d="m245-31v144h-252v-144z"/><path fill-rule="evenodd" class="b" d="m157.9 62.8c-4.8 0.3-9.3-1.3-12.9-4.3l4.2-3c2.5 1.6 5.5 2.5 8.5 2.3 2.6-0.1 5-1 7.1-2.5l4 3c-3 2.6-6.8 4.3-10.9 4.5z"/><path class="b" d="m12.6 53h-6.9v-31.5h6l13.5 22.2h-3.2l13.1-22.2h6.1v31.5h-6.8l-0.1-21h1.3l-10.5 17.6h-3.3l-10.8-17.6h1.6zm47.6 0.3q-4.1 0-7.2-1.6-3.1-1.6-4.8-4.4-1.7-2.8-1.7-6.4 0-3.6 1.6-6.4 1.7-2.9 4.6-4.4 3-1.6 6.7-1.6 3.5 0 6.3 1.5 2.9 1.5 4.5 4.3 1.7 2.8 1.7 6.7 0 0.4 0 0.9 0 0.5-0.1 1h-19.6v-4.1h15.9l-2.7 1.2q0-1.9-0.8-3.2-0.7-1.5-2.1-2.2-1.3-0.9-3.1-0.9-1.8 0-3.2 0.9-1.4 0.7-2.1 2.2-0.8 1.4-0.8 3.3v1.1q0 2 0.9 3.5 0.9 1.4 2.5 2.3 1.6 0.8 3.7 0.8 2 0 3.4-0.6 1.5-0.6 2.7-1.8l3.8 4q-1.7 2-4.2 3-2.5 0.9-5.9 0.9zm23.1-0.3h-7v-33.4h7zm28.4 0h-6.6v-4.7l-0.5-1.1v-8.4q0-2.3-1.4-3.5-1.3-1.3-4.2-1.3-1.9 0-3.8 0.7-1.8 0.5-3.1 1.6l-2.5-4.9q2-1.4 4.7-2.1 2.8-0.8 5.7-0.8 5.6 0 8.6 2.6 3.1 2.6 3.1 8.1zm-14 0.3q-2.8 0-4.9-0.9-2-1-3.1-2.6-1-1.7-1-3.8 0-2.1 1-3.7 1.1-1.7 3.4-2.6 2.3-0.9 6-0.9h6.4v4.1h-5.7q-2.4 0-3.4 0.8-0.9 0.8-0.9 2 0 1.3 1 2.2 1.1 0.7 2.9 0.7 1.8 0 3.2-0.8 1.4-0.8 2-2.5l1.1 3.3q-0.7 2.3-2.8 3.5-2 1.2-5.2 1.2zm44.1-0.3h-23.1v-31.5h7.3v25.5h15.8zm43.8 9.1q-3.4 0-6.6-0.8-3.1-0.9-5.3-2.5l2.8-5.1q1.6 1.3 3.9 2.1 2.4 0.7 4.7 0.7 3.7 0 5.4-1.7 1.7-1.6 1.7-4.9v-3.6l0.5-6.1-0.2-6.2v-5.2h6.7v20.2q0 6.7-3.5 9.9-3.5 3.2-10.1 3.2zm-1.1-10.2q-3.3 0-6.1-1.5-2.7-1.4-4.3-4.1-1.6-2.6-1.6-6.1 0-3.6 1.6-6.2 1.6-2.6 4.3-4 2.8-1.5 6.1-1.5 3.1 0 5.4 1.2 2.4 1.3 3.6 3.9 1.4 2.5 1.4 6.6 0 4-1.4 6.6-1.2 2.6-3.6 3.9-2.3 1.2-5.4 1.2zm1.4-5.8q1.9 0 3.3-0.7 1.5-0.8 2.3-2.1 0.8-1.4 0.8-3.1 0-1.8-0.8-3.1-0.8-1.4-2.3-2.1-1.4-0.8-3.3-0.8-1.8 0-3.2 0.8-1.5 0.7-2.3 2.1-0.8 1.3-0.8 3.1 0 1.7 0.8 3.1 0.8 1.3 2.3 2.1 1.4 0.7 3.2 0.7zm27.4 6.9h-7v-24.2h7zm-3.5-27.5q-2 0-3.2-1.1-1.2-1.2-1.2-2.9 0-1.6 1.2-2.8 1.2-1.1 3.2-1.1 1.9 0 3.1 1.1 1.2 1 1.2 2.7 0 1.7-1.2 2.9-1.2 1.2-3.1 1.2zm21.1 27.9q-3.9 0-6.9-1.6-3.1-1.6-4.8-4.4-1.7-2.9-1.7-6.5 0-3.6 1.7-6.4 1.7-2.8 4.8-4.4 3-1.6 6.9-1.6 3.9 0 6.7 1.6 2.8 1.5 4.2 4.5l-5.4 2.9q-1-1.7-2.4-2.4-1.5-0.9-3.1-0.9-1.8 0-3.2 0.8-1.5 0.8-2.3 2.3-0.8 1.5-0.8 3.6 0 2.1 0.8 3.7 0.8 1.4 2.3 2.3 1.4 0.7 3.2 0.7 1.6 0 3.1-0.7 1.4-0.9 2.4-2.6l5.4 2.9q-1.4 3-4.2 4.6-2.8 1.6-6.7 1.6z"/><path class="c" d="m156.7 53.3q-3.8 0-6.8-1.6-3-1.6-4.7-4.4-1.7-2.8-1.7-6.4 0-3.7 1.7-6.4 1.7-2.9 4.7-4.4 3-1.6 6.8-1.6 3.9 0 6.9 1.6 3 1.5 4.7 4.4 1.7 2.7 1.7 6.4 0 3.6-1.7 6.4-1.7 2.8-4.7 4.4-3 1.6-6.9 1.6zm0-5.7q1.8 0 3.2-0.8 1.4-0.8 2.2-2.3 0.8-1.5 0.8-3.6 0-2.1-0.8-3.6-0.8-1.5-2.2-2.3-1.4-0.8-3.1-0.8-1.8 0-3.2 0.8-1.4 0.8-2.2 2.3-0.8 1.5-0.8 3.6 0 2.1 0.8 3.6 0.8 1.5 2.2 2.3 1.4 0.8 3.1 0.8z"/><path fill-rule="evenodd" class="c" d="m169.5 20.1c4.4-7.9 9.4-14 12.6-15.9-3.1 3.7-6.6 10.1-9.2 17.4-2.5 6.7-3.6 12.6-3.4 16.1q0 0.1 0 0.1 0 0.1-0.1 0.1l-6.1-3.7c1-3.8 3.2-8.9 6.2-14.1z"/><path fill-rule="evenodd" class="d" d="m240 69v1h-234v-1z"/></svg>