<svg version="1.2" xmlns="http://www.w3.org/2000/svg" viewBox="0 0 283 283" width="283" height="283"><style>.a{fill:#1a4578}.b{fill:#5d9d69}</style><path fill-rule="evenodd" class="a" d="m148.5 265.8c-22 1.3-42.8-6.3-59.3-19.9l19.6-14c11.6 7.7 25 11.7 39.2 10.9 11.9-0.7 23-4.8 32.5-11.5l18.5 13.6c-14 12.1-31.3 19.7-50.5 20.9z"/><path class="a" d="m-513.5 227h-31.3v-144.8h27.6l61.7 102.3h-14.6l60.5-102.3h27.7l0.3 144.8h-31.4l-0.3-96.5h5.9l-48.5 81.1h-15l-49.5-81.1h6.9zm219.6 1.5q-19.1 0-33.5-7.3-14.2-7.5-22.1-20.3-7.8-13.1-7.8-29.6 0-16.7 7.6-29.6 7.8-13 21.1-20.2 13.6-7.4 30.6-7.4 16.4 0 29.4 6.9 13.2 7 20.7 19.9 7.8 12.9 7.8 30.9 0 1.8-0.2 4.3-0.1 2.3-0.3 4.3h-90.5v-18.8h73.4l-12.5 5.6q0.2-8.6-3.6-14.9-3.4-6.7-9.7-10.2-6.1-3.8-14.3-3.8-8.3 0-14.7 3.8-6.2 3.5-9.7 10.2-3.5 6.4-3.5 15.3v5q0 9.1 3.9 16.1 4.2 6.7 11.4 10.5 7.5 3.7 17.4 3.7 8.9 0 15.5-2.6 6.8-2.8 12.5-8.3l17.2 18.6q-7.8 8.8-19.4 13.5-11.5 4.4-26.7 4.4zm107.1-1.5h-32.2v-153.6h32.2zm128.2 0h-30.3v-21.6l-2-4.9v-38.8q0-10.4-6.4-16-6.2-5.9-19.3-5.9-8.8 0-17.5 2.8-8.5 2.7-14.6 7.5l-11.5-22.5q9.1-6.6 21.9-9.8 12.8-3.6 26.1-3.6 25.5 0 39.5 12.1 14.1 11.8 14.1 37.2zm-64.1 1.5q-13 0-22.4-4.2-9.3-4.5-14.3-12-4.8-7.8-4.8-17.4 0-9.9 4.6-17.2 5-7.6 15.5-11.8 10.6-4.3 27.6-4.3h29.4v18.8h-25.8q-11.5 0-15.9 3.7-4 3.7-4 9.4 0 6.1 4.7 9.9 4.9 3.5 13.3 3.5 8.1 0 14.6-3.7 6.5-3.9 9.3-11.4l4.9 15q-3.4 10.6-12.8 16.2-9.3 5.5-23.9 5.5zm515.9 40.2q-15.7 0-30.4-3.7-14.5-4-24.3-11.5l12.9-23.3q7.1 5.8 17.8 9.4 10.9 3.3 21.7 3.3 17.1 0 24.7-7.7 7.9-7.6 7.9-22.7v-16.7l2.1-28-0.6-28.2v-23.9h30.8v92.7q0 30.9-16.4 45.7-16 14.6-46.2 14.6zm-4.9-47.1q-15.4 0-28.2-6.6-12.4-6.8-20-18.9-7.4-12.1-7.4-28.3 0-16.3 7.4-28.4 7.6-12.1 20-18.6 12.8-6.7 28.2-6.7 14.1 0 24.8 5.7 10.7 5.6 16.6 17.6 6.2 11.9 6.2 30.4 0 18.5-6.2 30.4-5.9 11.9-16.6 17.8-10.7 5.6-24.8 5.6zm6.4-26.4q8.6 0 15.1-3.4 6.6-3.5 10.3-9.5 3.8-6.4 3.8-14.5 0-8.2-3.8-14.3-3.7-6.3-10.3-9.5-6.5-3.5-15.1-3.5-8.4 0-15.1 3.5-6.7 3.2-10.6 9.5-3.6 6.1-3.6 14.3 0 8.1 3.6 14.5 3.9 6 10.6 9.5 6.7 3.4 15.1 3.4zm123.5 31.8h-32.2v-111.3h32.2zm-16.1-126.8q-9 0-14.7-5-5.4-5.4-5.4-13.1 0-7.6 5.4-12.8 5.7-5.2 14.7-5.2 9 0 14.5 5 5.7 4.8 5.7 12.5 0 8-5.7 13.4-5.4 5.2-14.5 5.2zm99.6 128.3q-18 0-32.1-7.1-14-7.5-22.1-20.3-7.8-13.2-7.8-29.8 0-16.8 7.8-29.6 8.1-13 22.1-20.3 14.1-7.3 32.1-7.3 17.5 0 30.6 7.3 13.1 7.2 19.2 20.8l-24.9 13.6q-4.5-7.9-11-11.4-6.5-3.9-14.1-3.9-8.2 0-14.9 3.7-6.6 3.7-10.6 10.6-3.6 6.8-3.6 16.5 0 9.7 3.6 16.8 4 6.7 10.6 10.5 6.7 3.5 14.9 3.5 7.6 0 14.1-3.5 6.5-3.8 11-11.8l24.9 13.6q-6.1 13.5-19.2 21-13.1 7.1-30.6 7.1z"/><path class="b" d="m140.8 228.6q-17.7 0-31.6-7.4-13.6-7.4-21.7-20.3-7.8-13-7.8-29.6 0-16.8 7.8-29.5 8.1-13 21.7-20.3 13.8-7.4 31.6-7.4 17.7 0 31.5 7.4 13.9 7.2 21.5 20.3 8 12.7 8 29.5 0 16.7-8 29.6-7.6 12.9-21.5 20.3-13.8 7.4-31.5 7.4zm0-26.5q8.1 0 14.3-3.4 6.6-3.9 10.2-10.8 3.9-7.1 3.9-16.6 0-9.7-3.9-16.5-3.6-6.9-10.2-10.6-6.2-3.6-14.3-3.6-8.1 0-14.6 3.6-6.2 3.7-10.2 10.6-3.6 6.8-3.6 16.5 0 9.5 3.6 16.6 4 6.9 10.2 10.8 6.5 3.4 14.6 3.4z"/><path fill-rule="evenodd" class="b" d="m200.7 79c20.4-36.1 43.3-64.1 58.3-72.9-14.3 17-30.5 46.5-42.7 79.8-11.3 31-16.6 58.1-15.4 74.4q0 0.2 0 0.4-0.2 0.2-0.5 0.5l-28.2-17c4.9-17.7 14.8-40.9 28.5-65.2z"/></svg>